# Blender v2.74 (sub 0) OBJ File: ''
# www.blender.org
mtllib untitled-scene.mtl
o Cylinder2
v 0.016904 0.095000 0.550000
v 0.159244 0.095000 0.531300
v 0.291904 0.095000 0.476300
v 0.405864 0.095000 0.388960
v 0.493204 0.095000 0.275000
v 0.574621 0.095000 0.157732
v 0.800051 0.095000 -0.289893
v 0.840568 0.095000 -0.417370
v 0.856979 0.095000 -0.648898
v 0.777413 0.095000 -0.777731
v 0.631001 0.095000 -0.835325
v 0.411013 0.095000 -0.810026
v 0.237975 0.091118 -0.596774
v -0.095232 0.098838 -0.248772
v -0.759426 0.095000 -0.339194
v -0.873386 0.095000 -0.277611
v -0.960726 0.095000 -0.163651
v -1.031377 0.095000 -0.031325
v -0.998671 0.095000 0.111684
v -0.778521 0.095168 0.279161
v -0.282231 0.094793 0.491602
v -0.289360 0.095000 0.490400
v -0.125436 0.095000 0.531300
v 0.016904 -0.095000 0.550000
v 0.159244 -0.095000 0.531300
v 0.291904 -0.095000 0.476300
v 0.405864 -0.095000 0.388960
v 0.493204 -0.095000 0.275000
v 0.574621 -0.095000 0.157732
v 0.800051 -0.095000 -0.289893
v 0.840568 -0.095000 -0.417370
v 0.856979 -0.095000 -0.648898
v 0.777413 -0.095000 -0.777731
v 0.631001 -0.095000 -0.835325
v 0.411013 -0.095000 -0.810026
v 0.233382 -0.098838 -0.595522
v -0.099825 -0.091118 -0.247521
v -0.759426 -0.095000 -0.339194
v -0.873386 -0.095000 -0.277611
v -0.960726 -0.095000 -0.163651
v -1.031377 -0.095000 -0.031325
v -0.998671 -0.095000 0.111684
v -0.776923 -0.094793 0.274978
v -0.280633 -0.095168 0.487418
v -0.374600 -0.095000 0.374860
v -0.289360 -0.095000 0.490400
v -0.125436 -0.095000 0.531300
v 0.000000 0.095000 0.000000
v 0.000000 -0.095000 0.000000
vt 0.000000 1.000000
vt 0.000000 0.000000
vt 0.041667 0.000000
vt 0.041667 1.000000
vt 0.083333 0.000000
vt 0.083333 1.000000
vt 0.125000 0.000000
vt 0.125000 1.000000
vt 0.166667 0.000000
vt 0.166667 1.000000
vt 0.208333 0.000000
vt 0.208333 1.000000
vt 0.250000 0.000000
vt 0.250000 1.000000
vt 0.291667 0.000000
vt 0.291667 1.000000
vt 0.333333 0.000000
vt 0.333333 1.000000
vt 0.375000 0.000000
vt 0.375000 1.000000
vt 0.416667 0.000000
vt 0.416667 1.000000
vt 0.458333 0.000000
vt 0.458333 1.000000
vt 0.500000 0.000000
vt 0.500000 1.000000
vt 0.541667 0.000000
vt 0.541667 1.000000
vt 0.583333 0.000000
vt 0.583333 1.000000
vt 0.625000 0.000000
vt 0.625000 1.000000
vt 0.666667 0.000000
vt 0.666667 1.000000
vt 0.708333 0.000000
vt 0.708333 1.000000
vt 0.750000 0.000000
vt 0.750000 1.000000
vt 0.791667 0.000000
vt 0.791667 1.000000
vt 0.833333 0.000000
vt 0.833333 1.000000
vt 0.916667 1.000000
vt 0.916667 0.000000
vt 0.958333 0.000000
vt 0.958333 1.000000
vt 1.000000 0.000000
vt 1.000000 1.000000
vt 0.875000 1.000000
vn 0.000000 0.000000 1.000000
vn 0.258800 0.000000 0.965900
vn 0.499900 0.000000 0.866100
vn 0.707100 0.000000 0.707100
vn 0.807800 0.000000 0.589500
vn 0.859400 0.000000 0.511300
vn 0.926000 0.000000 0.377500
vn 0.982100 0.000000 0.188100
vn 0.997500 0.000000 0.070700
vn 0.850800 0.000000 -0.525500
vn 0.366100 0.000000 -0.930600
vn 0.129800 0.000000 -0.991500
vn -0.114200 0.000000 -0.993500
vn -0.773400 0.007300 -0.633900
vn -0.748000 0.010100 -0.663600
vn -0.748600 0.010100 -0.662900
vn -0.722100 0.012900 -0.691700
vn 0.136300 -0.004900 -0.990700
vn -0.475400 0.000000 -0.879800
vn -0.648900 0.000000 -0.760900
vn -0.840700 0.000000 -0.541500
vn -0.882100 0.000000 -0.471000
vn -0.974800 0.000000 0.222900
vn -0.599200 -0.011300 0.800500
vn -0.499800 -0.017600 0.866000
vn -0.499600 -0.017600 0.866100
vn -0.393400 -0.023500 0.919100
vn -0.242100 0.000000 0.970300
vn -0.186500 0.000000 0.982500
vn 0.000000 1.000000 0.000000
vn -0.000200 1.000000 -0.000400
vn -0.033700 0.999300 -0.017100
vn -0.010600 0.999900 -0.010700
vn 0.009600 0.999900 0.011700
vn -0.004700 0.999900 0.010400
vn -0.000000 1.000000 -0.000300
vn 0.000200 1.000000 -0.000000
vn 0.000500 1.000000 0.000700
vn 0.000000 -1.000000 -0.000000
vn 0.000200 -1.000000 0.000400
vn 0.031400 -0.999400 0.016000
vn 0.009000 -0.999900 0.010000
vn -0.009500 -0.999900 -0.011800
vn 0.004800 -0.999900 -0.010700
vn 0.000100 -1.000000 0.000700
vn -0.000100 -1.000000 0.000300
vn -0.000500 -1.000000 -0.000600
vn -0.003600 -1.000000 -0.003600
vn 0.000800 1.000000 0.000800
usemtl d1cbcb
s 1
f 1/1/1 24/2/1 25/3/2 2/4/2
f 2/4/2 25/3/2 26/5/3 3/6/3
f 3/6/3 26/5/3 27/7/4 4/8/4
f 4/8/4 27/7/4 28/9/5 5/10/5
f 5/10/5 28/9/5 29/11/6 6/12/6
f 6/12/6 29/11/6 30/13/7 7/14/7
f 7/14/7 30/13/7 31/15/8 8/16/8
f 8/16/8 31/15/8 32/17/9 9/18/9
f 9/18/10 32/17/10 33/19/10 10/20/10
f 10/20/11 33/19/11 34/21/12 11/22/12
f 11/22/12 34/21/12 35/23/13 12/24/13
f 12/24/14 35/23/14 36/25/15 13/26/16
f 13/26/16 36/25/15 37/27/17 14/28/17
f 14/28/18 37/27/18 38/29/18 15/30/18
f 15/30/19 38/29/19 39/31/20 16/32/20
f 16/32/20 39/31/20 40/33/21 17/34/21
f 17/34/21 40/33/21 41/35/22 18/36/22
f 18/36/23 41/35/23 42/37/23 19/38/23
f 19/38/24 42/37/24 43/39/25 20/40/26
f 20/40/26 43/39/25 44/41/27 21/42/27
f 22/43/28 46/44/28 47/45/29 23/46/29
f 23/46/29 47/45/29 24/47/1 1/48/1
f 1/2/30 2/3/30 48/1/31
f 2/3/30 3/5/30 48/1/31
f 3/5/30 4/7/30 48/1/31
f 4/7/30 5/9/30 48/1/31
f 5/9/30 6/11/30 48/1/31
f 6/11/30 7/13/30 48/1/31
f 7/13/30 8/15/30 48/1/31
f 8/15/30 9/17/30 48/1/31
f 9/17/30 10/19/30 48/1/31
f 10/19/30 11/21/30 48/1/31
f 11/21/30 12/23/32 48/1/31
f 12/23/32 13/25/33 48/1/31
f 13/25/33 14/27/34 48/1/31
f 14/27/34 15/29/35 48/1/31
f 15/29/35 16/31/30 48/1/31
f 16/31/30 17/33/30 48/1/31
f 17/33/30 18/35/30 48/1/31
f 18/35/30 19/37/36 48/1/31
f 19/37/36 20/39/37 48/1/31
f 20/39/37 21/41/38 48/1/31
f 22/44/30 23/45/30 48/1/31
f 23/45/30 1/47/30 48/1/31
f 25/4/39 24/1/39 49/2/40
f 26/6/39 25/4/39 49/2/40
f 27/8/39 26/6/39 49/2/40
f 28/10/39 27/8/39 49/2/40
f 29/12/39 28/10/39 49/2/40
f 30/14/39 29/12/39 49/2/40
f 31/16/39 30/14/39 49/2/40
f 32/18/39 31/16/39 49/2/40
f 33/20/39 32/18/39 49/2/40
f 34/22/39 33/20/39 49/2/40
f 35/24/41 34/22/39 49/2/40
f 36/26/42 35/24/41 49/2/40
f 37/28/43 36/26/42 49/2/40
f 38/30/44 37/28/43 49/2/40
f 39/32/39 38/30/44 49/2/40
f 40/34/39 39/32/39 49/2/40
f 41/36/39 40/34/39 49/2/40
f 42/38/45 41/36/39 49/2/40
f 43/40/46 42/38/45 49/2/40
f 44/42/47 43/40/46 49/2/40
f 45/49/48 44/42/49 49/2/40
f 46/43/39 45/49/48 49/2/40
f 47/46/39 46/43/39 49/2/40
f 24/48/39 47/46/39 49/2/40
o Cylinder
v 0.015367 0.100000 0.500000
v 0.144767 0.100000 0.483000
v 0.265367 0.100000 0.433000
v 0.368967 0.100000 0.353600
v 0.448367 0.100000 0.250000
v 0.522382 0.100000 0.143393
v 0.727319 0.100000 -0.263539
v 0.764153 0.100000 -0.379428
v 0.779072 0.100000 -0.589907
v 0.706739 0.100000 -0.707028
v 0.573637 0.100000 -0.759386
v 0.373648 0.100000 -0.736387
v 0.216341 0.095913 -0.542522
v -0.086575 0.104040 -0.226157
v -0.690388 0.100000 -0.308358
v -0.793988 0.100000 -0.252373
v -0.873388 0.100000 -0.148773
v -0.937615 0.100000 -0.028477
v -0.907883 0.100000 0.101531
v -0.707746 0.100176 0.253783
v -0.256574 0.099782 0.446911
v -0.263055 0.100000 0.445818
v -0.114033 0.100000 0.483000
v 0.015367 -0.100000 0.500000
v 0.144767 -0.100000 0.483000
v 0.265367 -0.100000 0.433000
v 0.368967 -0.100000 0.353600
v 0.448367 -0.100000 0.250000
v 0.522382 -0.100000 0.143393
v 0.727319 -0.100000 -0.263539
v 0.764153 -0.100000 -0.379428
v 0.779072 -0.100000 -0.589907
v 0.706739 -0.100000 -0.707028
v 0.573637 -0.100000 -0.759386
v 0.373648 -0.100000 -0.736387
v 0.212166 -0.104040 -0.541384
v -0.090750 -0.095913 -0.225019
v -0.690388 -0.100000 -0.308358
v -0.793988 -0.100000 -0.252373
v -0.873388 -0.100000 -0.148773
v -0.937615 -0.100000 -0.028477
v -0.907883 -0.100000 0.101531
v -0.706293 -0.099782 0.249980
v -0.255121 -0.100176 0.443108
v -0.340545 -0.100000 0.340782
v -0.263055 -0.100000 0.445818
v -0.114033 -0.100000 0.483000
v 0.000000 0.100000 0.000000
v 0.000000 -0.100000 0.000000
vt 0.000000 1.000000
vt 0.000000 0.000000
vt 0.041667 0.000000
vt 0.041667 1.000000
vt 0.083333 0.000000
vt 0.083333 1.000000
vt 0.125000 0.000000
vt 0.125000 1.000000
vt 0.166667 0.000000
vt 0.166667 1.000000
vt 0.208333 0.000000
vt 0.208333 1.000000
vt 0.250000 0.000000
vt 0.250000 1.000000
vt 0.291667 0.000000
vt 0.291667 1.000000
vt 0.333333 0.000000
vt 0.333333 1.000000
vt 0.375000 0.000000
vt 0.375000 1.000000
vt 0.416667 0.000000
vt 0.416667 1.000000
vt 0.458333 0.000000
vt 0.458333 1.000000
vt 0.500000 0.000000
vt 0.500000 1.000000
vt 0.541667 0.000000
vt 0.541667 1.000000
vt 0.583333 0.000000
vt 0.583333 1.000000
vt 0.625000 0.000000
vt 0.625000 1.000000
vt 0.666667 0.000000
vt 0.666667 1.000000
vt 0.708333 0.000000
vt 0.708333 1.000000
vt 0.750000 0.000000
vt 0.750000 1.000000
vt 0.791667 0.000000
vt 0.791667 1.000000
vt 0.833333 0.000000
vt 0.833333 1.000000
vt 0.916667 1.000000
vt 0.916667 0.000000
vt 0.958333 0.000000
vt 0.958333 1.000000
vt 1.000000 0.000000
vt 1.000000 1.000000
vt 0.875000 1.000000
vn 0.000000 0.000000 1.000000
vn 0.258800 0.000000 0.965900
vn 0.499900 0.000000 0.866100
vn 0.707100 0.000000 0.707100
vn 0.807800 0.000000 0.589500
vn 0.859400 0.000000 0.511300
vn 0.926000 0.000000 0.377500
vn 0.982100 0.000000 0.188100
vn 0.997500 0.000000 0.070700
vn 0.850800 0.000000 -0.525500
vn 0.366100 0.000000 -0.930600
vn 0.129800 0.000000 -0.991500
vn -0.114200 0.000000 -0.993500
vn -0.773400 0.006300 -0.633900
vn -0.748000 0.008700 -0.663600
vn -0.748600 0.008700 -0.663000
vn -0.722100 0.011100 -0.691700
vn 0.136300 -0.004200 -0.990700
vn -0.475400 0.000000 -0.879800
vn -0.648900 0.000000 -0.760900
vn -0.840700 0.000000 -0.541500
vn -0.882100 0.000000 -0.471000
vn -0.974800 0.000000 0.222900
vn -0.599200 -0.009800 0.800500
vn -0.499800 -0.015200 0.866000
vn -0.499700 -0.015200 0.866100
vn -0.393500 -0.020300 0.919100
vn -0.242100 0.000000 0.970300
vn -0.186500 0.000000 0.982500
vn 0.000000 1.000000 0.000000
vn -0.034600 0.999200 -0.017600
vn -0.018400 0.999700 -0.014900
vn 0.011100 0.999800 0.013600
vn -0.004800 0.999900 0.010700
vn -0.000000 1.000000 -0.000300
vn 0.000200 1.000000 -0.000100
vn 0.000500 1.000000 0.000800
vn 0.000000 -1.000000 0.000000
vn 0.032200 -0.999300 0.016400
vn 0.016100 -0.999800 0.013800
vn -0.011000 -0.999800 -0.013700
vn 0.005000 -0.999900 -0.011100
vn 0.000100 -1.000000 0.000700
vn -0.000200 -1.000000 0.000400
vn -0.000600 -1.000000 -0.000700
vn 0.000900 1.000000 0.000900
usemtl 870a0a
s 1
f 50/50/50 73/51/50 74/52/51 51/53/51
f 51/53/51 74/52/51 75/54/52 52/55/52
f 52/55/52 75/54/52 76/56/53 53/57/53
f 53/57/53 76/56/53 77/58/54 54/59/54
f 54/59/54 77/58/54 78/60/55 55/61/55
f 55/61/55 78/60/55 79/62/56 56/63/56
f 56/63/56 79/62/56 80/64/57 57/65/57
f 57/65/57 80/64/57 81/66/58 58/67/58
f 58/67/59 81/66/59 82/68/59 59/69/59
f 59/69/60 82/68/60 83/70/61 60/71/61
f 60/71/61 83/70/61 84/72/62 61/73/62
f 61/73/63 84/72/63 85/74/64 62/75/65
f 62/75/65 85/74/64 86/76/66 63/77/66
f 63/77/67 86/76/67 87/78/67 64/79/67
f 64/79/68 87/78/68 88/80/69 65/81/69
f 65/81/69 88/80/69 89/82/70 66/83/70
f 66/83/70 89/82/70 90/84/71 67/85/71
f 67/85/72 90/84/72 91/86/72 68/87/72
f 68/87/73 91/86/73 92/88/74 69/89/75
f 69/89/75 92/88/74 93/90/76 70/91/76
f 71/92/77 95/93/77 96/94/78 72/95/78
f 72/95/78 96/94/78 73/96/50 50/97/50
f 50/51/79 51/52/79 97/50/79
f 51/52/79 52/54/79 97/50/79
f 52/54/79 53/56/79 97/50/79
f 53/56/79 54/58/79 97/50/79
f 54/58/79 55/60/79 97/50/79
f 55/60/79 56/62/79 97/50/79
f 56/62/79 57/64/79 97/50/79
f 57/64/79 58/66/79 97/50/79
f 58/66/79 59/68/79 97/50/79
f 59/68/79 60/70/79 97/50/79
f 60/70/79 61/72/80 97/50/79
f 61/72/80 62/74/81 97/50/79
f 62/74/81 63/76/82 97/50/79
f 63/76/82 64/78/83 97/50/79
f 64/78/83 65/80/79 97/50/79
f 65/80/79 66/82/79 97/50/79
f 66/82/79 67/84/79 97/50/79
f 67/84/79 68/86/84 97/50/79
f 68/86/84 69/88/85 97/50/79
f 69/88/85 70/90/86 97/50/79
f 71/93/79 72/94/79 97/50/79
f 72/94/79 50/96/79 97/50/79
f 74/53/87 73/50/87 98/51/87
f 75/55/87 74/53/87 98/51/87
f 76/57/87 75/55/87 98/51/87
f 77/59/87 76/57/87 98/51/87
f 78/61/87 77/59/87 98/51/87
f 79/63/87 78/61/87 98/51/87
f 80/65/87 79/63/87 98/51/87
f 81/67/87 80/65/87 98/51/87
f 82/69/87 81/67/87 98/51/87
f 83/71/87 82/69/87 98/51/87
f 84/73/88 83/71/87 98/51/87
f 85/75/89 84/73/88 98/51/87
f 86/77/90 85/75/89 98/51/87
f 87/79/91 86/77/90 98/51/87
f 88/81/87 87/79/91 98/51/87
f 89/83/87 88/81/87 98/51/87
f 90/85/87 89/83/87 98/51/87
f 91/87/92 90/85/87 98/51/87
f 92/89/93 91/87/92 98/51/87
f 93/91/94 92/89/93 98/51/87
f 94/98/87 93/91/95 98/51/87
f 95/92/87 94/98/87 98/51/87
f 96/95/87 95/92/87 98/51/87
f 73/97/87 96/95/87 98/51/87
o Cylinder1
v 0.058300 0.125000 0.216400
v 0.084200 0.125000 0.213000
v 0.108300 0.125000 0.203000
v 0.129000 0.125000 0.187100
v 0.144900 0.125000 0.166400
v 0.154900 0.125000 0.142300
v 0.158300 0.125000 0.116400
v 0.154900 0.125000 0.090500
v 0.144900 0.125000 0.066400
v 0.129000 0.125000 0.045700
v 0.108300 0.125000 0.029800
v 0.084200 0.125000 0.019800
v 0.058300 0.125000 0.016400
v 0.032400 0.125000 0.019800
v 0.008300 0.125000 0.029800
v -0.012400 0.125000 0.045700
v -0.028300 0.125000 0.066400
v -0.038300 0.125000 0.090500
v -0.041700 0.125000 0.116400
v -0.038300 0.125000 0.142300
v -0.028300 0.125000 0.166400
v -0.012400 0.125000 0.187100
v 0.008300 0.125000 0.203000
v 0.032400 0.125000 0.213000
v 0.058300 -0.125000 0.216400
v 0.084200 -0.125000 0.213000
v 0.108300 -0.125000 0.203000
v 0.129000 -0.125000 0.187100
v 0.144900 -0.125000 0.166400
v 0.154900 -0.125000 0.142300
v 0.158300 -0.125000 0.116400
v 0.154900 -0.125000 0.090500
v 0.144900 -0.125000 0.066400
v 0.129000 -0.125000 0.045700
v 0.108300 -0.125000 0.029800
v 0.084200 -0.125000 0.019800
v 0.058300 -0.125000 0.016400
v 0.032400 -0.125000 0.019800
v 0.008300 -0.125000 0.029800
v -0.012400 -0.125000 0.045700
v -0.028300 -0.125000 0.066400
v -0.038300 -0.125000 0.090500
v -0.041700 -0.125000 0.116400
v -0.038300 -0.125000 0.142300
v -0.028300 -0.125000 0.166400
v -0.012400 -0.125000 0.187100
v 0.008300 -0.125000 0.203000
v 0.032400 -0.125000 0.213000
v 0.058300 0.125000 0.116400
v 0.058300 -0.125000 0.116400
vt 0.000000 1.000000
vt 0.000000 0.000000
vt 0.041667 0.000000
vt 0.041667 1.000000
vt 0.083333 0.000000
vt 0.083333 1.000000
vt 0.125000 0.000000
vt 0.125000 1.000000
vt 0.166667 0.000000
vt 0.166667 1.000000
vt 0.208333 0.000000
vt 0.208333 1.000000
vt 0.250000 0.000000
vt 0.250000 1.000000
vt 0.291667 0.000000
vt 0.291667 1.000000
vt 0.333333 0.000000
vt 0.333333 1.000000
vt 0.375000 0.000000
vt 0.375000 1.000000
vt 0.416667 0.000000
vt 0.416667 1.000000
vt 0.458333 0.000000
vt 0.458333 1.000000
vt 0.500000 0.000000
vt 0.500000 1.000000
vt 0.541667 0.000000
vt 0.541667 1.000000
vt 0.583333 0.000000
vt 0.583333 1.000000
vt 0.625000 0.000000
vt 0.625000 1.000000
vt 0.666667 0.000000
vt 0.666667 1.000000
vt 0.708333 0.000000
vt 0.708333 1.000000
vt 0.750000 0.000000
vt 0.750000 1.000000
vt 0.791667 0.000000
vt 0.791667 1.000000
vt 0.833333 0.000000
vt 0.833333 1.000000
vt 0.875000 0.000000
vt 0.875000 1.000000
vt 0.916667 0.000000
vt 0.916667 1.000000
vt 0.958333 0.000000
vt 0.958333 1.000000
vt 1.000000 0.000000
vt 1.000000 1.000000
vn 0.000000 0.000000 1.000000
vn 0.258900 0.000000 0.965900
vn 0.500500 0.000000 0.865700
vn 0.707100 0.000000 0.707100
vn 0.865700 0.000000 0.500500
vn 0.965900 0.000000 0.258900
vn 1.000000 0.000000 -0.000000
vn 0.965900 0.000000 -0.258900
vn 0.865700 0.000000 -0.500500
vn 0.707100 0.000000 -0.707100
vn 0.500500 0.000000 -0.865700
vn 0.258900 0.000000 -0.965900
vn 0.000000 0.000000 -1.000000
vn -0.258900 0.000000 -0.965900
vn -0.500500 0.000000 -0.865700
vn -0.707100 0.000000 -0.707100
vn -0.865700 0.000000 -0.500500
vn -0.965900 0.000000 -0.258900
vn -1.000000 0.000000 -0.000000
vn -0.965900 0.000000 0.258900
vn -0.865700 0.000000 0.500500
vn -0.707100 0.000000 0.707100
vn -0.500500 0.000000 0.865700
vn -0.258900 0.000000 0.965900
vn 0.000000 1.000000 0.000000
vn 0.000000 -1.000000 0.000000
usemtl dddddd
s 1
f 99/99/96 123/100/96 124/101/97 100/102/97
f 100/102/97 124/101/97 125/103/98 101/104/98
f 101/104/98 125/103/98 126/105/99 102/106/99
f 102/106/99 126/105/99 127/107/100 103/108/100
f 103/108/100 127/107/100 128/109/101 104/110/101
f 104/110/101 128/109/101 129/111/102 105/112/102
f 105/112/102 129/111/102 130/113/103 106/114/103
f 106/114/103 130/113/103 131/115/104 107/116/104
f 107/116/104 131/115/104 132/117/105 108/118/105
f 108/118/105 132/117/105 133/119/106 109/120/106
f 109/120/106 133/119/106 134/121/107 110/122/107
f 110/122/107 134/121/107 135/123/108 111/124/108
f 111/124/108 135/123/108 136/125/109 112/126/109
f 112/126/109 136/125/109 137/127/110 113/128/110
f 113/128/110 137/127/110 138/129/111 114/130/111
f 114/130/111 138/129/111 139/131/112 115/132/112
f 115/132/112 139/131/112 140/133/113 116/134/113
f 116/134/113 140/133/113 141/135/114 117/136/114
f 117/136/114 141/135/114 142/137/115 118/138/115
f 118/138/115 142/137/115 143/139/116 119/140/116
f 119/140/116 143/139/116 144/141/117 120/142/117
f 120/142/117 144/141/117 145/143/118 121/144/118
f 121/144/118 145/143/118 146/145/119 122/146/119
f 122/146/119 146/145/119 123/147/96 99/148/96
f 99/100/120 100/101/120 147/99/120
f 100/101/120 101/103/120 147/99/120
f 101/103/120 102/105/120 147/99/120
f 102/105/120 103/107/120 147/99/120
f 103/107/120 104/109/120 147/99/120
f 104/109/120 105/111/120 147/99/120
f 105/111/120 106/113/120 147/99/120
f 106/113/120 107/115/120 147/99/120
f 107/115/120 108/117/120 147/99/120
f 108/117/120 109/119/120 147/99/120
f 109/119/120 110/121/120 147/99/120
f 110/121/120 111/123/120 147/99/120
f 111/123/120 112/125/120 147/99/120
f 112/125/120 113/127/120 147/99/120
f 113/127/120 114/129/120 147/99/120
f 114/129/120 115/131/120 147/99/120
f 115/131/120 116/133/120 147/99/120
f 116/133/120 117/135/120 147/99/120
f 117/135/120 118/137/120 147/99/120
f 118/137/120 119/139/120 147/99/120
f 119/139/120 120/141/120 147/99/120
f 120/141/120 121/143/120 147/99/120
f 121/143/120 122/145/120 147/99/120
f 122/145/120 99/147/120 147/99/120
f 124/102/121 123/99/121 148/100/121
f 125/104/121 124/102/121 148/100/121
f 126/106/121 125/104/121 148/100/121
f 127/108/121 126/106/121 148/100/121
f 128/110/121 127/108/121 148/100/121
f 129/112/121 128/110/121 148/100/121
f 130/114/121 129/112/121 148/100/121
f 131/116/121 130/114/121 148/100/121
f 132/118/121 131/116/121 148/100/121
f 133/120/121 132/118/121 148/100/121
f 134/122/121 133/120/121 148/100/121
f 135/124/121 134/122/121 148/100/121
f 136/126/121 135/124/121 148/100/121
f 137/128/121 136/126/121 148/100/121
f 138/130/121 137/128/121 148/100/121
f 139/132/121 138/130/121 148/100/121
f 140/134/121 139/132/121 148/100/121
f 141/136/121 140/134/121 148/100/121
f 142/138/121 141/136/121 148/100/121
f 143/140/121 142/138/121 148/100/121
f 144/142/121 143/140/121 148/100/121
f 145/144/121 144/142/121 148/100/121
f 146/146/121 145/144/121 148/100/121
f 123/148/121 146/146/121 148/100/121
